<svg width="13" height="14" viewBox="0 0 13 14" fill="none" xmlns="http://www.w3.org/2000/svg">
<path d="M11.375 5.83333C11.375 9.91667 6.5 13.4167 6.5 13.4167C6.5 13.4167 1.625 9.91667 1.625 5.83333C1.625 4.44095 2.13861 3.10559 3.05285 2.12102C3.96709 1.13646 5.20707 0.583332 6.5 0.583332C7.79293 0.583332 9.03291 1.13646 9.94715 2.12102C10.8614 3.10559 11.375 4.44095 11.375 5.83333Z" stroke="#ECEBEB" stroke-linecap="round" stroke-linejoin="round"/>
<path d="M6.5 7.58333C7.39746 7.58333 8.125 6.79983 8.125 5.83333C8.125 4.86683 7.39746 4.08333 6.5 4.08333C5.60254 4.08333 4.875 4.86683 4.875 5.83333C4.875 6.79983 5.60254 7.58333 6.5 7.58333Z" stroke="#ECEBEB" stroke-linecap="round" stroke-linejoin="round"/>
</svg>
