<svg width="36" height="33" viewBox="0 0 36 33" fill="none" xmlns="http://www.w3.org/2000/svg">
<g filter="url(#filter0_d_83_1655)">
<path d="M26.3429 6.4694L26.3432 6.46974C26.889 7.01532 27.322 7.66309 27.6175 8.37606C27.9129 9.08903 28.0649 9.85322 28.0649 10.625C28.0649 11.3967 27.9129 12.1609 27.6175 12.8739C27.322 13.5868 26.889 14.2346 26.3432 14.7802L26.343 14.7804L25.018 16.1054L16.0002 25.1232L6.98225 16.1054L5.65726 14.7804C4.55518 13.6783 3.93604 12.1835 3.93604 10.625C3.93604 9.06639 4.55518 7.57165 5.65726 6.46957C6.75933 5.36749 8.25407 4.74835 9.81265 4.74835C11.3712 4.74835 12.866 5.36749 13.968 6.46957L15.293 7.79457C15.6836 8.18509 16.3167 8.18509 16.7073 7.79457L18.0323 6.46957L18.0324 6.4694C18.578 5.92357 19.2258 5.49057 19.9387 5.19515C20.6517 4.89973 21.4159 4.74768 22.1877 4.74768C22.9594 4.74768 23.7236 4.89973 24.4366 5.19515C25.1495 5.49057 25.7973 5.92357 26.3429 6.4694Z" fill="#FF6F6F" stroke="#FF6F6F" stroke-width="2" stroke-linecap="round" stroke-linejoin="round"/>
</g>
<defs>
<filter id="filter0_d_83_1655" x="-1" y="-2" width="38" height="38" filterUnits="userSpaceOnUse" color-interpolation-filters="sRGB">
<feFlood flood-opacity="0" result="BackgroundImageFix"/>
<feColorMatrix in="SourceAlpha" type="matrix" values="0 0 0 0 0 0 0 0 0 0 0 0 0 0 0 0 0 0 127 0" result="hardAlpha"/>
<feOffset dx="2" dy="2"/>
<feGaussianBlur stdDeviation="2"/>
<feComposite in2="hardAlpha" operator="out"/>
<feColorMatrix type="matrix" values="0 0 0 0 0 0 0 0 0 0 0 0 0 0 0 0 0 0 0.25 0"/>
<feBlend mode="normal" in2="BackgroundImageFix" result="effect1_dropShadow_83_1655"/>
<feBlend mode="normal" in="SourceGraphic" in2="effect1_dropShadow_83_1655" result="shape"/>
</filter>
</defs>
</svg>
